<svg width="86" height="90" viewBox="0 0 86 90" fill="none" xmlns="http://www.w3.org/2000/svg">
<path d="M43.1342 0C30.1233 0 19.4875 10.437 19.4875 23.2047C19.4875 35.9724 30.1233 46.4094 43.1342 46.4094C56.1451 46.4094 66.7809 35.9724 66.7809 23.2047C66.7809 10.437 56.1451 0 43.1342 0Z" fill="black"/>
<path d="M83.7159 64.9528C83.0963 63.4328 82.2703 62.0142 81.341 60.6969C76.5909 53.8063 69.2596 49.2465 60.9988 48.1319C59.9662 48.0306 58.8304 48.2331 58.0042 48.8412C53.6672 51.9824 48.5043 53.6037 43.1346 53.6037C37.765 53.6037 32.602 51.9824 28.2651 48.8412C27.4389 48.2331 26.303 47.9292 25.2705 48.1319C17.0097 49.2465 9.57497 53.8063 4.92829 60.6969C3.99896 62.0142 3.17279 63.5342 2.55337 64.9528C2.24365 65.5609 0.527553 68.892 0.837266 69.5C1.66343 70.9186 1.7272 70.595 2.65654 71.8109C4.10213 73.7363 7.23465 75.8787 8.99015 77.5C10.4357 78.9186 13.0663 80.5 14.5949 81.5C22.7524 87.4786 32.9119 89.3734 43.0315 89.3734C53.151 89.3734 63.5041 87.4784 71.6616 81.5C73.3137 80.2841 75.311 79.4186 76.7568 78C78.4089 76.3787 80.9158 74.9252 82.3616 73C83.3941 71.6827 84.5924 70.9186 85.4183 69.5C85.9344 68.892 84.0256 65.5607 83.7159 64.9528Z" fill="black"/>
</svg>
