<?xml version="1.0" encoding="UTF-8"?>
<!DOCTYPE svg PUBLIC "-//W3C//DTD SVG 1.1//EN" "http://www.w3.org/Graphics/SVG/1.1/DTD/svg11.dtd">
<svg xmlns="http://www.w3.org/2000/svg" version="1.1" width="512px" height="512px" style="shape-rendering:geometricPrecision; text-rendering:geometricPrecision; image-rendering:optimizeQuality; fill-rule:evenodd; clip-rule:evenodd" xmlns:xlink="http://www.w3.org/1999/xlink">
<g><path style="opacity:0.99" fill="#000000" d="M 148.5,32.5 C 166.465,49.9649 184.299,67.6316 202,85.5C 209.167,78.3333 216.333,71.1667 223.5,64C 305.499,63.5 387.499,63.3333 469.5,63.5C 469.5,198.833 469.5,334.167 469.5,469.5C 341.167,469.5 212.833,469.5 84.5,469.5C 84.3333,380.499 84.5,291.499 85,202.5C 92.348,195.319 99.5146,187.986 106.5,180.5C 89.1667,162.833 71.8333,145.167 54.5,127.5C 85.8544,95.8124 117.188,64.1458 148.5,32.5 Z M 148.5,94.5 C 156.146,101.479 163.479,108.812 170.5,116.5C 159.848,127.653 149.014,138.653 138,149.5C 130.652,142.319 123.485,134.986 116.5,127.5C 127.188,116.479 137.855,105.479 148.5,94.5 Z M 216.5,188.5 C 217.239,188.369 217.906,188.536 218.5,189C 237.707,208.541 257.207,227.708 277,246.5C 296.973,227.361 316.807,208.027 336.5,188.5C 346.153,197.652 355.653,206.986 365,216.5C 365.667,217.167 365.667,217.833 365,218.5C 345.5,238 326,257.5 306.5,277C 326.347,296.68 346.014,316.514 365.5,336.5C 356.348,346.153 347.014,355.653 337.5,365C 336.833,365.667 336.167,365.667 335.5,365C 316,345.5 296.5,326 277,306.5C 257.32,326.347 237.486,346.014 217.5,365.5C 207.847,356.348 198.347,347.014 189,337.5C 188.333,336.833 188.333,336.167 189,335.5C 208.541,316.293 227.708,296.793 246.5,277C 227.361,257.027 208.027,237.193 188.5,217.5C 197.855,207.813 207.188,198.146 216.5,188.5 Z"/></g>
</svg>
