<svg width="45" height="12" viewBox="0 0 45 12" fill="none" xmlns="http://www.w3.org/2000/svg">
<g id="&#240;&#159;&#166;&#134; icon &#34;ellipses&#34;">
<path id="Vector" d="M5.625 0C2.5184 0 0 2.5184 0 5.625C0 8.7316 2.5184 11.25 5.625 11.25C8.7316 11.25 11.25 8.7316 11.25 5.625C11.25 2.5184 8.7316 0 5.625 0ZM22.5 0C19.3934 0 16.875 2.5184 16.875 5.625C16.875 8.7316 19.3934 11.25 22.5 11.25C25.6066 11.25 28.125 8.7316 28.125 5.625C28.125 2.5184 25.6066 0 22.5 0ZM39.375 0C36.2684 0 33.75 2.5184 33.75 5.625C33.75 8.7316 36.2684 11.25 39.375 11.25C42.4816 11.25 45 8.7316 45 5.625C45 2.5184 42.4816 0 39.375 0Z" fill="black"/>
</g>
</svg>
