<svg enable-background="new 0 0 24 24" viewBox="0 0 24 24" xmlns="http://www.w3.org/2000/svg"><path d="m5 3c-.5 0-1.1.2-1.4.6s-.6.9-.6 1.4v14c0 .5.2 1.1.6 1.4s.9.6 1.4.6h14c.5 0 1.1-.2 1.4-.6s.6-.9.6-1.4v-14c0-.5-.2-1.1-.6-1.4s-.9-.6-1.4-.6zm0 2h14v14h-14zm3 2c-.6 0-1 .4-1 1v2c0 .6.4 1 1 1h2c.6 0 1-.4 1-1v-2c0-.6-.4-1-1-1zm6 0c-.6 0-1 .4-1 1v2c0 .6.4 1 1 1h2c.6 0 1-.4 1-1v-2c0-.6-.4-1-1-1zm-6 6c-.6 0-1 .4-1 1v2c0 .6.4 1 1 1h2c.6 0 1-.4 1-1v-2c0-.6-.4-1-1-1zm6 0c-.6 0-1 .4-1 1v2c0 .6.4 1 1 1h2c.6 0 1-.4 1-1v-2c0-.6-.4-1-1-1z"/><path d="m0 0h24v24h-24z" fill="none"/></svg>