<svg width="22" height="21" viewBox="0 0 22 21" fill="none" xmlns="http://www.w3.org/2000/svg">
<g id="&#240;&#159;&#166;&#134; icon &#34;magnifying glass&#34;">
<path id="Vector" d="M9.60507 0.0260145C4.58427 0.0260145 0.5 4.11029 0.5 9.13108C0.5 14.1519 4.58427 18.2362 9.60507 18.2362C11.1399 18.2362 12.6488 17.872 13.9235 17.1696C14.0256 17.2924 14.1388 17.4056 14.2617 17.5077L16.8631 20.1092C17.1033 20.3795 17.3962 20.5978 17.7239 20.7508C18.0515 20.9038 18.407 20.9882 18.7684 20.9989C19.1299 21.0095 19.4897 20.9461 19.8258 20.8127C20.1619 20.6792 20.4671 20.4785 20.7228 20.2228C20.9785 19.9671 21.1792 19.6619 21.3127 19.3258C21.4461 18.9897 21.5095 18.6299 21.4988 18.2684C21.4882 17.907 21.4038 17.5515 21.2508 17.2239C21.0978 16.8962 20.8795 16.6033 20.6092 16.3631L18.0077 13.7617C17.881 13.6349 17.7415 13.5216 17.5915 13.4235C18.2939 12.1488 18.7362 10.6659 18.7362 9.10507C18.7362 4.08427 14.6519 0 9.63108 0L9.60507 0.0260145ZM9.60507 2.62746C13.2211 2.62746 16.1087 5.51507 16.1087 9.13108C16.1087 10.848 15.4843 12.4349 14.3917 13.6056C14.3657 13.6316 14.3397 13.6576 14.3137 13.6836C14.1908 13.7857 14.0776 13.8989 13.9755 14.0218C12.8309 15.0624 11.27 15.6607 9.57905 15.6607C5.96304 15.6607 3.07543 12.7731 3.07543 9.1571C3.07543 5.54108 5.96304 2.65348 9.57905 2.65348L9.60507 2.62746Z" fill="#9F9F9F"/>
</g>
</svg>
