<?xml version="1.0" encoding="UTF-8"?>
<!DOCTYPE svg PUBLIC "-//W3C//DTD SVG 1.1//EN" "http://www.w3.org/Graphics/SVG/1.1/DTD/svg11.dtd">
<svg xmlns="http://www.w3.org/2000/svg" version="1.1" width="512px" height="512px" style="shape-rendering:geometricPrecision; text-rendering:geometricPrecision; image-rendering:optimizeQuality; fill-rule:evenodd; clip-rule:evenodd" xmlns:xlink="http://www.w3.org/1999/xlink">
<g><path style="opacity:0.975" fill="#000000" d="M 143.5,41.5 C 161.932,40.716 176.266,47.8827 186.5,63C 232.5,63.6667 278.5,63.6667 324.5,63C 339.787,41.9265 359.454,36.5932 383.5,47C 390.167,51 395.5,56.3333 399.5,63C 387.171,63.4999 374.838,63.6665 362.5,63.5C 362.5,77.5 362.5,91.5 362.5,105.5C 374.851,105.168 387.185,105.501 399.5,106.5C 384.795,127.515 365.462,133.015 341.5,123C 335.023,119.023 329.689,113.856 325.5,107.5C 278.833,106.167 232.167,106.167 185.5,107.5C 174.459,123.8 159.125,130.3 139.5,127C 127.171,124.16 117.838,117.326 111.5,106.5C 123.815,105.501 136.149,105.168 148.5,105.5C 148.5,91.5 148.5,77.5 148.5,63.5C 136.162,63.6665 123.829,63.4999 111.5,63C 119.05,51.0676 129.716,43.9009 143.5,41.5 Z"/></g>
<g><path style="opacity:0.986" fill="#000000" d="M 148.5,148.5 C 219.834,148.333 291.167,148.5 362.5,149C 386.501,153.677 403.334,167.177 413,189.5C 423,219.5 433,249.5 443,279.5C 455.64,285.472 463.973,295.139 468,308.5C 469.612,335.131 469.945,361.798 469,388.5C 467.222,402.437 460.389,413.104 448.5,420.5C 455.942,460.224 439.942,476.391 400.5,469C 392.523,467.025 387.023,462.192 384,454.5C 383.5,445.173 383.334,435.839 383.5,426.5C 298.167,426.5 212.833,426.5 127.5,426.5C 127.666,435.839 127.5,445.173 127,454.5C 123.977,462.192 118.477,467.025 110.5,469C 71.0582,476.391 55.0582,460.224 62.5,420.5C 51.0747,413.235 44.2414,402.901 42,389.5C 41.3333,364.5 41.3333,339.5 42,314.5C 44.1561,298.009 52.8228,286.342 68,279.5C 78,249.5 88,219.5 98,189.5C 107.833,167.164 124.666,153.497 148.5,148.5 Z M 158.5,191.5 C 223.168,191.333 287.834,191.5 352.5,192C 361.764,192.61 368.264,197.11 372,205.5C 380.339,229.018 388.173,252.684 395.5,276.5C 302.167,276.5 208.833,276.5 115.5,276.5C 123.1,251.2 131.6,226.2 141,201.5C 145.322,195.425 151.155,192.092 158.5,191.5 Z M 116.5,319.5 C 135.508,321.841 146.175,332.508 148.5,351.5C 146.242,370.258 135.742,380.925 117,383.5C 92.9839,379.487 82.9839,365.487 87,341.5C 92.5403,328.17 102.374,320.837 116.5,319.5 Z M 393.5,319.5 C 415.531,322.692 426.031,335.358 425,357.5C 419.025,376.406 406.192,384.573 386.5,382C 367.716,375.266 360.216,362.1 364,342.5C 369.068,328.586 378.902,320.92 393.5,319.5 Z"/></g>
</svg>
